<?xml version="1.0" encoding="UTF-8"?>
<svg width="14px" height="14px" viewBox="0 0 14 14" version="1.1" xmlns="http://www.w3.org/2000/svg" xmlns:xlink="http://www.w3.org/1999/xlink">
    <title>icons / alert copy</title>
    <g id="Page-1" stroke="none" stroke-width="1" fill="none" fill-rule="evenodd">
        <g id="Startup-Banking-Landing-Page-Mobile-Web-OTP" transform="translate(-35.000000, -4293.000000)" fill-rule="nonzero" stroke="#9D1D27">
            <g id="Form" transform="translate(14.000000, 3786.000000)">
                <g id="Group" transform="translate(22.250000, 508.250000)">
                    <path d="M9.24470802,0.907353395 L10.4358166,0.680466449 C10.5492555,0.661559204 10.605975,0.567022977 10.5870685,0.453579504 C10.568162,0.359043277 10.4736296,0.283414295 10.3601907,0.30232154 L8.67751344,0.642651958 C8.62079398,0.661559204 8.58298101,0.680466449 8.56407452,0.71828094 C8.54516804,0.756095431 8.52626155,0.812817167 8.54516804,0.869538904 L8.88548478,2.55228375 C8.90439127,2.64681998 8.9989237,2.72244896 9.11236261,2.70354171 C9.20689504,2.68463447 9.28252099,2.59009824 9.2636145,2.47665477 L9.01783019,1.19096208 C10.7761334,2.26867507 11.8348966,4.25393584 11.7025512,6.39045457 C11.5323928,9.24544864 9.20689504,11.5521326 6.35201568,11.7222978 C3.1001001,11.892463 0.377566137,9.28326313 0.377566137,6.05012416 C0.377566137,2.98715039 2.81650282,0.472486749 5.86044704,0.377950522 C5.95497947,0.377950522 6.0495119,0.283414295 6.0495119,0.188878068 L6.0495119,0.188878068 C6.0495119,0.0754345949 5.95497947,-0.000194386876 5.86044704,-0.000194386876 C2.47618607,0.113249086 -0.227441411,3.00605764 0.0183429055,6.4849908 C0.22631425,9.45342834 2.62743796,11.8735558 5.61466273,12.0815355 C9.15017559,12.3273296 12.0995874,9.52905732 12.0995874,6.05012416 C12.0995874,3.93251267 11.0219177,2.02288088 9.24470802,0.907353395 Z" id="Path"></path>
                </g>
            </g>
        </g>
    </g>
</svg>